/* XPM */
static char *Closed_exit1719670233[] = {
/* columns rows colors chars-per-pixel */
"32 32 239 2 ",
"   c #3B1B08",
".  c #341D15",
"X  c #392D0E",
"o  c #3E2F1B",
"O  c #3D2B16",
"+  c #3C3114",
"@  c #382C27",
"#  c #3B3329",
"$  c #4F1D04",
"%  c #462A18",
"&  c #592C19",
"*  c #4C3519",
"=  c #4D3B1D",
"-  c #45371A",
";  c #54321A",
":  c #5A3B1C",
">  c #56351A",
",  c #4D280B",
"<  c #632C1B",
"1  c #68361C",
"2  c #75381C",
"3  c #7B2E12",
"4  c #433A22",
"5  c #4B3C24",
"6  c #473828",
"7  c #5C3424",
"8  c #533C22",
"9  c #5B3C23",
"0  c #5C3A2B",
"q  c #57362A",
"w  c #473837",
"e  c #5B3D37",
"r  c #492D21",
"t  c #663A26",
"y  c #743D22",
"u  c #793B26",
"i  c #653E35",
"p  c #672B21",
"a  c #3E4227",
"s  c #7E421B",
"d  c #64471B",
"f  c #4D4323",
"g  c #49482A",
"h  c #534124",
"j  c #5C4425",
"k  c #53442B",
"l  c #5A442B",
"z  c #554C2C",
"x  c #5A492C",
"c  c #504A26",
"v  c #484138",
"b  c #5C4D33",
"n  c #584A38",
"m  c #5B5237",
"M  c #50532F",
"N  c #654A2B",
"B  c #654529",
"V  c #754C23",
"C  c #7D4B2B",
"Z  c #794326",
"A  c #654233",
"S  c #624D34",
"D  c #674539",
"F  c #784938",
"G  c #655135",
"H  c #71522E",
"J  c #5E494A",
"K  c #535145",
"L  c #685949",
"P  c #73554D",
"I  c #76564B",
"U  c #685755",
"Y  c #745957",
"T  c #6E4B46",
"R  c #6C6A5A",
"E  c #766657",
"W  c #726D4E",
"Q  c #7C5D64",
"!  c #776665",
"~  c #7B7466",
"^  c #6C6A64",
"/  c #88451B",
"(  c #9B4812",
")  c #AE5D1F",
"_  c #BA681E",
"`  c #844929",
"'  c #8C532D",
"]  c #9A5628",
"[  c #885437",
"{  c #995436",
"}  c #94492E",
"|  c #AC5A28",
" . c #B75824",
".. c #A65936",
"X. c #B65A39",
"o. c #B76729",
"O. c #A66435",
"+. c #B86739",
"@. c #BB753A",
"#. c #AB662F",
"$. c #C66836",
"%. c #CD743B",
"&. c #C27C3D",
"*. c #C57537",
"=. c #D47A3B",
"-. c #825356",
";. c #8D5B46",
":. c #A45843",
">. c #87644B",
",. c #836D59",
"<. c #986958",
"1. c #967551",
"2. c #AC6847",
"3. c #B96849",
"4. c #AC7543",
"5. c #BC7A4B",
"6. c #AE7454",
"7. c #866B6A",
"8. c #836667",
"9. c #877A69",
"0. c #866C71",
"q. c #8A7875",
"w. c #907063",
"e. c #A17C6C",
"r. c #C36B46",
"t. c #CD7D43",
"y. c #C4794B",
"u. c #D77848",
"i. c #C67652",
"p. c #DC843E",
"a. c #D5823C",
"s. c #E0853C",
"d. c #B8834D",
"f. c #B58457",
"g. c #888678",
"h. c #958578",
"j. c #9E937F",
"k. c #B98D61",
"l. c #B18E74",
"z. c #CD8645",
"x. c #CD894B",
"c. c #C98649",
"v. c #D48442",
"b. c #D2894B",
"n. c #D88447",
"m. c #CC8A54",
"M. c #C78655",
"N. c #D28A53",
"B. c #D98A57",
"V. c #CB975C",
"C. c #D99258",
"Z. c #E08A4B",
"A. c #E2934E",
"S. c #E38C55",
"D. c #E5975C",
"F. c #CE8D65",
"G. c #C89564",
"H. c #D49465",
"J. c #DA9967",
"K. c #CF9370",
"L. c #E1976C",
"P. c #D8A37A",
"I. c #DFA06D",
"U. c #E4AB7C",
"Y. c #E7A166",
"T. c #8A7E83",
"R. c #998986",
"E. c #9B9585",
"W. c #93908C",
"Q. c #A5988A",
"!. c #B59689",
"~. c #AC9C92",
"^. c #AA9A98",
"/. c #ABA49C",
"(. c #A6A094",
"). c #B8A299",
"_. c #9E9BA2",
"`. c #B39DAC",
"'. c #B09FA7",
"]. c #AA98A4",
"[. c #B8A9A7",
"{. c #BDB3B2",
"}. c #BABDB4",
"|. c #BFB0A9",
" X c #C4A69E",
".X c #C8B39B",
"XX c #CBAA89",
"oX c #FFB880",
"OX c #C4A5A2",
"+X c #C7B6A8",
"@X c #C1B5B5",
"#X c #C2BBB6",
"$X c #CBBDBC",
"%X c #C8BAB7",
"&X c #C9B4AF",
"*X c #DCC3AD",
"=X c #CAC3BA",
"-X c #D7C7B8",
";X c #E1CAB9",
":X c #E0C1AF",
">X c #C8B8C3",
",X c #CBC4C2",
"<X c #C9C8C3",
"1X c #D4C4CC",
"2X c #D5C9C7",
"3X c #D9D4CB",
"4X c #DCCEDA",
"5X c #D7CDD4",
"6X c #DCD4D4",
"7X c #DCDAD4",
"8X c #DCD4DA",
"9X c #DAD7D8",
"0X c #CFD0CA",
"qX c #E4CFC6",
"wX c #E2D2CB",
"eX c #E3DCC7",
"rX c #E3D5D4",
"tX c #E4DCD5",
"yX c #E3D5DD",
"uX c #E5DBDB",
"iX c #EBDBDB",
"pX c #EBDED6",
"aX c #F5DED6",
"sX c #F6DACF",
"dX c #E5E2DB",
"fX c #ECE2DB",
"gX c #EDE5D7",
"hX c #F1E3DC",
"jX c #E0E1CF",
"kX c #DFDBE3",
"lX c #E2DBE2",
"zX c #E9DBE7",
"xX c #ECDFF3",
"cX c #EBE3E4",
"vX c #E5E2E4",
"bX c #F5E2E3",
"nX c #F5EBE7",
"mX c #EDE7F1",
"MX c #F8EFF0",
/* pixels */
"# n = : : j 8 v ^ [.|.E 6 6 # v a K U ^ R./.Q.0.n o b 5 f k m f ",
"# f = H d * 5 U 7XvX=X9.7.~.[.#X<X6XdXnXMXMXwX|.h.# 4 = f - - g ",
"4 k j B : ,.Q./.[.[.^.h.Q.&X#X{.=X,X<X,X>X>X@X^.E L ~ n O n b 5 ",
"4 m N : j .XbX9X9X6XrXqXqXqX$X@X#X}.{.{.@X%X$X$X6XwXhX=X,.5 8 * ",
"f j N N N +XhXvXmX5XwXaXsXaXaXfXfXbXbXbXbXbXbXxXzXuXiXhX).5 0 j ",
"h h B N j OX7XkX_.^ Y w.e.!.!.!.).). X XOXOX[.[.'.2XzXrX+Xn S > ",
"= j l j l -XdXvXT.w % & $ $ & & p 9 t & t A A e Y ^.lXuXwXT l j ",
"f h j G L 7X9X9X! J ;.6.] ' { [ Z ` ` s ` ` F 0 J T.zX2XtXE 8 j ",
"= h b S Y -X9X,XY A K.L.#.+.M.H.] 5.J.@.#.F.f.B D q.yX6XtXh.h j ",
"k f b b 9.3XuX,XY t K.B. .Z.S.B.#.N.D.Z.o.D.4.V D 0.6XyXrXq.= x ",
"x 5 k k R.fXuX%XD u L.B._ Z.C.x.] m.Y.a.o.D.@.' D 7.1XlX7Xh.4 x ",
"5 4 6 4 ~.hXrX@XT Z F.n.) v.Y.I.O.M.oXp._ A.c./ A 7.1XlX9X(.c h ",
"5 4 5 O ~.hXrX+XA 1 ] | ) x.U.k.F [ K.C.o.C.b.s i 0.>XkX9X#Xm - ",
"5 5 h O Q.pXrX|.0 V O.#.O.V.k.B 6   H H.@.D.m.' i 0.>X4X9X3XL - ",
"h k l O h.gXrX[.e [ P.C.5.G.,.+ w @ 7 f.d.Y.M.` i 8.>XkX9XtXL - ",
"h j l O h.hXiX).0 B XXL.4.k.H g w w % H d.H.H.` i Q >XzX6XjXL j ",
"8 S x + L -XdX).A C L.J.c.d.d + w O   d d.V.G.V x 7.@XzXsXOX* j ",
"j x b - 9.dXdX^.0 ` L.B.5.m.1.1.>.-.;.4.c.V.G.H N L ^.yX4XOX8 * ",
"f k z # E.dXuX^.q Z L.S.&.C.G.P.6.F.L.b.b.b.C.` F 8.`.zXyXrXq.6 ",
"- f z a E.7XuX|.i Z B.S.=.B.M.H.y.B.A.p.p.C.C.s t 8.`.zX4XmX[.4 ",
"= h x 5 Q.7XvX#XT y i.B.%.n.N.N.t.u.p.=.s.Z.B.2 T Q ].xX4XlX/.@ ",
": = h 5 Q.dXvX{.J p 5.D.=.v.b.b.a.n.a.a.p.a.m.u T 8.`.xX5XvX/.# ",
"> & > q h.rXlX{.J t 2.B.*.*.z.y.&.z.a.a.a.z.M.y i 8.[.kX3XjXj.X ",
"& > 9 9 ,.2XvX$X! 7 ' 3.) *.b.c.&.c.z.a.x.m.f.1 T 8./.fXjXeXg.X ",
"; 8 : l Q.gXdXyX0.q u / ( $.t.N.@.@.n.v.t.M.2.< -.P `.bX2XfX9.- ",
"l 8 - f j.gX9X9X0.i ` i.r.$.u.i.@.*.t.%.+.i.2.< I 8.`.bXwXaX.Xk ",
"g g f f 9.jX3XvXT.T u r.X. .u.u.$.%.u.%.$.r.:.p -.0.`.xX4XrX&X6 ",
"g M M M W 7X0XcXT.i u 2.X.X.u.r.) $.u.$.X.r.:.p -.Q >XzX4XlX>XU ",
"a c c f W jXjXdX[.i p 2 3 ] { 2...+.3.| ] { } & Y q.0XvX4X4X1XJ ",
"g c * - m .XgXMX2X7.w.<.;.[ 2 s < 2 u 2 Z { -.I [.<X>X<X4XuXiXU ",
"q 0 > & > ,.~.}.@XR.j.l.K.XX.X*X*X3X;X*X:X&X+X|.^.<X}.0XnXfX+XD ",
"q 7 & y t * q # # w % X % = z n R ~ 9.h.j.h.W R g.W.g.^ R L 5 k "
};
