/* XPM */
static char *diamond1719670512[] = {
/* columns rows colors chars-per-pixel */
"32 32 187 2 ",
"   c #3B2C12",
".  c #412D14",
"X  c #453115",
"o  c #4A3416",
"O  c #45341A",
"+  c #4C361B",
"@  c #4D3B1C",
"#  c #51371C",
"$  c #533B1D",
"%  c #443421",
"&  c #4D3720",
"*  c #463A23",
"=  c #4D3C22",
"-  c #4F3429",
";  c #453F29",
":  c #4C3E2C",
">  c #533D23",
",  c #593E24",
"<  c #533D2C",
"1  c #563E31",
"2  c #593E32",
"3  c #4F401E",
"4  c #54411E",
"5  c #59431D",
"6  c #494124",
"7  c #4C432C",
"8  c #544224",
"9  c #5A4325",
"0  c #5B4A26",
"q  c #55442A",
"w  c #5B452A",
"e  c #574B2A",
"r  c #5C4A2B",
"t  c #564A24",
"y  c #5D512E",
"u  c #4F4334",
"i  c #544331",
"p  c #5B4431",
"a  c #5D4B32",
"s  c #55463A",
"d  c #5C4C3B",
"f  c #5E533E",
"g  c #604826",
"h  c #61472E",
"j  c #614C2D",
"k  c #63532E",
"l  c #69572F",
"z  c #67582F",
"x  c #624D32",
"c  c #694F34",
"v  c #604D39",
"b  c #655133",
"n  c #6A5536",
"m  c #6E5B35",
"M  c #64533B",
"N  c #69553A",
"B  c #6D5A3B",
"V  c #735E3E",
"C  c #73603C",
"Z  c #5E5141",
"A  c #5D534A",
"S  c #635444",
"D  c #645946",
"F  c #6B5A44",
"G  c #63574C",
"H  c #655C4B",
"J  c #6B5D4A",
"K  c #725E45",
"L  c #675A51",
"P  c #6A5E50",
"I  c #6E624C",
"U  c #736142",
"Y  c #71614B",
"T  c #7A6742",
"R  c #6D6250",
"E  c #6E645A",
"W  c #736755",
"Q  c #776A57",
"!  c #72625A",
"~  c #746B5C",
"^  c #75705D",
"/  c #7B7364",
"(  c #847C6D",
")  c #867E71",
"_  c #887F7A",
"`  c #8E8375",
"'  c #8C837A",
"]  c #928773",
"[  c #948878",
"{  c #988C7E",
"}  c #90837B",
"|  c #948C82",
" . c #989286",
".. c #9B938C",
"X. c #9D9990",
"o. c #A29784",
"O. c #A49C8D",
"+. c #A99D91",
"@. c #AEA699",
"#. c #AEA89C",
"$. c #A9A292",
"%. c #B1A39C",
"&. c #B5AA9C",
"*. c #B4ABA3",
"=. c #BBAEA5",
"-. c #B6B0A4",
";. c #BBB4AB",
":. c #BAB3A4",
">. c #BAB4B1",
",. c #BEBDB9",
"<. c #B7B6B8",
"1. c #C2B9AC",
"2. c #C1BDB3",
"3. c #C8BDB7",
"4. c #C1BEB9",
"5. c #CCC2B5",
"6. c #C5C2BA",
"7. c #CEC8BC",
"8. c #D2CABD",
"9. c #B6B9C0",
"0. c #BBBFCA",
"q. c #BCBBC0",
"w. c #C4C3C4",
"e. c #CBC5C7",
"r. c #CECAC5",
"t. c #C3C6CA",
"y. c #C5C9CD",
"u. c #CCCACF",
"i. c #D3CECB",
"p. c #D1CDC4",
"a. c #CFD0CB",
"s. c #DAD1C0",
"d. c #D3D1CB",
"f. c #DED8CB",
"g. c #CACED5",
"h. c #C2C8D4",
"j. c #CCD3DC",
"k. c #D2D4D3",
"l. c #DFD5D3",
"z. c #DDDAD5",
"x. c #D3D5DA",
"c. c #D6DADE",
"v. c #DDDCDC",
"b. c #E1D7D5",
"n. c #E3DDD5",
"m. c #E6DDDB",
"M. c #DEE0DF",
"N. c #E6E2D7",
"B. c #E9E3DA",
"V. c #ECE8DF",
"C. c #E3E2DE",
"Z. c #C7D4E7",
"A. c #CCD5E3",
"S. c #CFD8E6",
"D. c #CDD9EA",
"F. c #D3DAE4",
"G. c #DCDCE2",
"H. c #D3DDED",
"J. c #D8DEEA",
"K. c #D2DFF2",
"L. c #DAE0E5",
"P. c #D6E0EC",
"I. c #DDE1EB",
"U. c #DFE8EF",
"Y. c #D9E5F5",
"T. c #E3E4E3",
"R. c #EBE5E2",
"E. c #EBE9E5",
"W. c #E4E6EB",
"Q. c #EAEAEC",
"!. c #F3EAEC",
"~. c #F1EDE2",
"^. c #F6F0E4",
"/. c #F4F2ED",
"(. c #F9F0EB",
"). c #E2E6F1",
"_. c #E6ECF3",
"`. c #EDEDF4",
"'. c #F7EEF3",
"]. c #ECF3FB",
"[. c #EEF2F1",
"{. c #F5F3F5",
"}. c #F8F7F3",
"|. c #F3F5FB",
" X c #F8F6F9",
".X c #F3FBFF",
"XX c #FDFCFE",
/* pixels */
"= > q q = > q 9 $ o o # , $ # $ , # # $ , # # # < > = < q i i i ",
"@ q w e q q 9 w > + o # , $ $ 9 $ g g , $ 9 9 , & > > > > : : < ",
"O 8 w w w w 9 q $ + # $ $ $ > 8 g l B h 8 $ $ $ o + 8 q > @ > > ",
"= 9 r r w w w 9 > > , 9 9 , 9 h c c l ( n 5 o + $ > 9 w w q 8 8 ",
"8 0 j g r j j j e e j x b x a x c g n U U n 0 r j j j j j 0 5 + ",
"5 9 0 0 0 j x j N N N N M x a e g g r r b V B a k x j j b j 0 5 ",
"$ $ 5 9 r b n n B B N M M M z y c a w w a B F b b b c b l j g 9 ",
"$ 5 0 g n B C U N M M M J W Q Q K S d D F D S F Y Y K B h g $ $ ",
"5 5 g l n B U F f Y ] { &.1.:.5.3.*.*.=.&.+.` J J S K F h x c $ ",
"5 5 g 0 e B F M I o.8.f.f.z.f.V.(.R.b.b.b.i.>...G 1 s G v p h g ",
"5 0 0 9 e a M J ] 5.^.B.d.M.E.}. X X!.b.v.v.e.>._ A s Z x 2 h h ",
"8 4 @ 8 w 7 f ( 8.^./.z.k.T.|.XX XXX`.G.G.k.g.a.>.' L Z 2 2 2 , ",
"o O X O : q / -.N./.E.M.L._.]._.XXXXXX|._.c.g.G.,.*.' G < w h > ",
"@ 8 :   * R @.N.V.}._._.]..X.X.X].|.|.|._.g.y.k.w.r.#.! q 9 w # ",
"q e e = ; ~ -.N.a.T.x.j.S.H.Y.Y.).P.).].U.L.L.M.v.a.O.J q 9 , # ",
"q 6 7 q * Z | ;.a.T.x.g.j.D.Y.Z.P.j.j.S.L._..X[.}.6./ : * 9 8 9 ",
"w q t = O = J [ ;.k.t.<.j.H.Z.P.P.A.A.F.J.`. X!.b.} s 1 q < , $ ",
"e e q 8 = O p F { 1.e.q.0.Z.K.D.D.D.P.).W.`.'.!.%.! : 1 p w , # ",
"= 8 9 w q 8 w d D _ >.e.9.h.H.S.S.S.P._.`.{.C.,.! 1 % < 9 < , @ ",
"+ 6 q t w a v v < G | >.t.0.j.A.F.A.c.W. X/.;.~ : % O & & > & + ",
"4 t w q 8 9 w p d M E ..,.t.y.c.F.x.G.{.E.6./ % * = = 8 > + + & ",
"+ @ 8 9 w w w x v S Z E X.6.a.M.c.x.Q./.;.^ 7 3 6 r r j r > O + ",
"X X $ h x h x c a a d S !  .6.z.c.M.C.,./ 7 6 e 0 k k j x , . & ",
"$ o + 9 w 9 , w a > S J 7 H $.7.l.R.p.( 7 6 y t z l k r r &   & ",
"$ + , 9 8 $ o $ r a x M s 7 R O.N.;.) D 7 7 y k T m 0 5 0 w q = ",
"9 8 , 9 , # + o 9 , > q = O q W ( ~ H f r e r k C z 0 8 0 b x q ",
"9 0 9 r 9 $ $ $ 9 @ X X = + = a * 7 * * a r t j z j 0 8 q y a q ",
"8 9 0 j j w t 5 j 8 X . > t q q @ *     a y > q 0 r 9 9 q w q 8 ",
"3 4 8 t r r r r j j q $ , 8 $ q @ 6 O @ N c > > p x a w q q q 8 ",
"8 3 3 @ 8 0 r r q r r w 9 8 $ 8 O t > = p w - < p p p w q t 6 3 ",
"3 3 @ @ = t e t @ t 9 9 9 q $ 9 4 5 8 @ & - < 2 < 1 < q > q 8 @ ",
"3 3 @ 3 q e 8 = 8 @ + + $ # o @ 4 @ $ $ , 2 2 - 1 2 < < q t 6 @ "
};
