/* XPM */
static char *Wall_11719670271[] = {
/* columns rows colors chars-per-pixel */
"32 32 79 1 ",
"  c #170B17",
". c #190D19",
"X c #1A0E1A",
"o c #1B0F1B",
"O c #1C101C",
"+ c #1D111D",
"@ c #1E121E",
"# c #1F131F",
"$ c #201420",
"% c #211521",
"& c #221622",
"* c #231723",
"= c #241824",
"- c #251925",
"; c #261A26",
": c #271B27",
"> c #281C28",
", c #291D29",
"< c #2A1E2A",
"1 c #2B1F2B",
"2 c #2C202C",
"3 c #2D212D",
"4 c #2E222E",
"5 c #2F232F",
"6 c #302430",
"7 c #312531",
"8 c #322632",
"9 c #332733",
"0 c #342834",
"q c #352935",
"w c #362A36",
"e c #372B37",
"r c #382C38",
"t c #392D39",
"y c #3A2E3A",
"u c #3B2F3B",
"i c #3C303C",
"p c #3D313D",
"a c #3E323E",
"s c #3F333F",
"d c #403440",
"f c #413541",
"g c #423642",
"h c #433743",
"j c #443844",
"k c #453945",
"l c #463A46",
"z c #473B47",
"x c #483C48",
"c c #493D49",
"v c #4A3E4A",
"b c #4B3F4B",
"n c #4C404C",
"m c #4D414D",
"M c #4E424E",
"N c #4F434F",
"B c #504450",
"V c #514551",
"C c #524652",
"Z c #534753",
"A c #544854",
"S c #554955",
"D c #564A56",
"F c #574B57",
"G c #584C58",
"H c #594D59",
"J c #5A4E5A",
"K c #5B4F5B",
"L c #5C505C",
"P c #5D515D",
"I c #5E525E",
"U c #5F535F",
"Y c #605460",
"T c #615561",
"R c #625662",
"E c #635763",
"W c #655965",
"Q c #665A66",
"! c #6C606C",
/* pixels */
"%0ztiv5=,,90,90,,vitti9vZNzSN5,=",
"=iNzZS95,5vvNvZ0iUSGUS0tvzzvi5,=",
"OtzzZN,,,9GNUZG09SZZZN55,=9,,==5",
"%0ihNh=,,,vhziv9%t9055=iNzN0=5O=",
"%959t5%,=%55=,5=,5%,%=5NzzN0,9,5",
"%=OO%O,,5,=5%=5,05o,555iUUSi5,=%",
"=5=,%5vhiti5,0z05,O,,9,,505=%%,=",
",==5%0GvNNS=5hUh5955%09,%5O==O5%",
"=%=5=0NzzNZ= 559%9=50,=,90,5555o",
"0t,%o5i9itt90t5,thti0=,5%NGGvzZv",
"ZSi0o,5ozZGUUSZvTWTGi=,==ZTUSSSz",
"%9%,%99=tUGUGSUzhvSS0=95,ihhvSZh",
"9t,0995,hZzvZSZ9ZGUZ9=tt0iht5590",
",5%=5%,9,99iht0,9t99=9STUGGz5=O5",
"ZSz59O,=59zNvvvSNZt,,0ZGUNZhzZvv",
"vZv=0%95,5i0hTGGSUt=,,tzt90=9ZNN",
"Nvv0=595,=,=iUZSZS5,5,,,=%O=tvNv",
"5905,59,,59,9i0htz0ZGUTUSNh09095",
"OO=,,90,,0,======,5ZSGGGNz0==,,5",
",==,9zZZNN5,959%9,9SZGGGZvi5=,,=",
",===5zSSGS9=,,5%9%5NvSSGZvt555==",
"599%O0zivv0,5=59i9tvzv0t55==,99,",
"zSZ9=tvhvNNzNvhvWUUTGS5,,,,,595,",
"zGS9%iSZGZGSTThhUGSGUU,,=,5,=,,=",
"0Nv9=iGNZGUNSTv0vhvzhh50i=55,5%=",
"%5,==iUTZZGSTGh00900zhzGSzvzzi==",
",,,559NZZvNNNziNSNZZS0zSvvvzNi=,",
"vhzZh,59,==OO%,zGSSZG,hNNZvzvi9h",
"GSUQZ,,,=,99izthNNviv,hivSzih0iS",
"SZSTv5559,=,zSt,ivvhh,,%%5%==%tS",
"it0zt,9,9,=O5i5%==990,O5,9,09=th",
",%O,5,9,=59=,,O50%,==59UUGZSh,=o"
};
