/* XPM */
static char *Ground_resized1719670271[] = {
/* columns rows colors chars-per-pixel */
"32 32 38 1 ",
"  c #3E2B0B",
". c #463315",
"X c #483417",
"o c #473318",
"O c #4A361B",
"+ c #4D3A1D",
"@ c #513C1E",
"# c #4E3A21",
"$ c #523E23",
"% c #53401F",
"& c #554224",
"* c #594526",
"= c #5E4926",
"- c #564129",
"; c #5A452A",
": c #5D492B",
"> c #5F4A31",
", c #644E26",
"< c #614D2D",
"1 c #66502C",
"2 c #69532C",
"3 c #624E32",
"4 c #655133",
"5 c #6A5534",
"6 c #6D5935",
"7 c #665139",
"8 c #6A5639",
"9 c #6E593B",
"0 c #725C35",
"q c #725E3C",
"w c #776138",
"e c #7A643C",
"r c #6F5B40",
"t c #735E42",
"y c #766144",
"u c #7D6740",
"i c #7E6841",
"p c #7C6949",
/* pixels */
"#&;-#$--$OX#$$@@$@O$$@O$$$$$-;;;",
"#-;;--;;@XX@$$@*@*,@@$*$@$$$$$$$",
"O-:;;;--$+@@$$$*>55,$$$OX@$$$$$$",
"#-::;;;;*&$==$*=55yy5*O@@$;;;-$-",
"*:<<>3<:*=:<<=:,237yy2;>>>>77;-#",
"&*;*;:14545551,=,<,>7r92>7>77>;-",
"%%&*:155q66252,,>1;*>99777777>>-",
"%&=:49yq61115w00>*$,7279yyy7>--$",
"+&346qqq45220ww0,$$$-;>7r7507>>-",
"&;::<465q0600w00>,,-;;,2>>77>>>-",
"-;:&*3866560w62252;;;;>>;->7;>>>",
"%%%%%:8qq6weew0007>,,;;;,>>7----",
"# # #->4q60eew0w0722>>,,>>>>-;-#",
"--###---<<462,,,7>>772>7>;>----#",
"---###-%<452,,,2,,,>>>,;;;--#->#",
"---%o%-%*11===,<-$;>,$O#$;>-#-;-",
"&-:+O%&::::&&:4&7;,;$2r>->>$--#-",
":::&+%&&:%&:3:3:7>97$>r7->--->-#",
"%&:&%&:::+&43&::>,yr>;72$;$#;-##",
"+&&--::4:%&4:&&&-->7>33*###o##O#",
"%&&::&::::4:&&&+$@***,*OO$$$-Oo#",
"++&:::::4484&&-%@***$$$$$;,>>#oO",
"..+&:::::488:&&%$;,$@@@*=373>$oo",
"++%-:&:::&49>%+%,,$@$*,,85,>;#oo",
"++%:&+++::44:#%&<*&=&*<3p9;$<<$+",
"&&&-&+.+:%%%%%&-%%:<<;:3t8<*;31$",
"::-::&++:+..+%&:.%%%:*-32<;-;33$",
"&&::::&&3&..+#%-.%  =<#->;;-$;<$",
"%&&:::::>:&%&%&-%% %77##>7>>>>$$",
"&%++&::::-::-&&-%&%%>>##$-->$;$$",
"&#++%::&&&&&&%-&&-%###--#$$$$>$$",
"+%%%&:&+%%++++ ###%%$$>#-->$$$$$"
};
