/* XPM */
static char *opened_exit1719670271[] = {
/* columns rows colors chars-per-pixel */
"32 32 232 2 ",
"   c #3D2C15",
".  c #382C23",
"X  c #4C2A03",
"o  c #482600",
"O  c #54300E",
"+  c #422D12",
"@  c #45331B",
"#  c #4A351B",
"$  c #4C3A1C",
"%  c #463617",
"&  c #5C3915",
"*  c #533B1D",
"=  c #5C3C1B",
"-  c #543616",
";  c #502C0A",
":  c #613C1D",
">  c #653B15",
",  c #463421",
"<  c #493623",
"1  c #473823",
"2  c #4D3B23",
"3  c #4C3B2B",
"4  c #47362B",
"5  c #533C23",
"6  c #5A3D22",
"7  c #523C2B",
"8  c #443D34",
"9  c #4C3E33",
"0  c #523F32",
"q  c #633C22",
"w  c #59451C",
"e  c #64421D",
"r  c #73461D",
"t  c #4F4124",
"y  c #4F402D",
"u  c #554224",
"i  c #5B4325",
"p  c #5B4925",
"a  c #55432B",
"s  c #5B442B",
"d  c #5D4A2B",
"f  c #524A23",
"g  c #5A5126",
"h  c #4E4033",
"j  c #534333",
"k  c #5B4533",
"l  c #5B4A34",
"z  c #54443B",
"x  c #5F473A",
"c  c #5D4B3B",
"v  c #574B3C",
"b  c #5B5030",
"n  c #634424",
"m  c #614926",
"M  c #624529",
"N  c #634B2B",
"B  c #6B4A2C",
"V  c #6A4925",
"C  c #724522",
"Z  c #784B28",
"A  c #6A522D",
"S  c #665627",
"D  c #755425",
"F  c #785A2D",
"G  c #634B32",
"H  c #6A4E31",
"J  c #634D3C",
"K  c #6B4D38",
"L  c #604731",
"P  c #724D32",
"I  c #645231",
"U  c #6B5434",
"Y  c #64513B",
"T  c #695838",
"R  c #7D5334",
"E  c #7C5834",
"W  c #755839",
"Q  c #5D4A43",
"!  c #5E4E4B",
"~  c #584844",
"^  c #55524D",
"/  c #624D44",
"(  c #7F4F41",
")  c #69554C",
"_  c #6A5746",
"`  c #7E564A",
"'  c #645653",
"]  c #6B5A56",
"[  c #6D5E5C",
"{  c #685A55",
"}  c #745E51",
"|  c #725E5C",
" . c #73655B",
".. c #796758",
"X. c #6D625C",
"o. c #736362",
"O. c #7A6B63",
"+. c #7A6969",
"@. c #766F67",
"#. c #79736B",
"$. c #6E6B64",
"%. c #9D531F",
"&. c #814B2A",
"*. c #8A4D2B",
"=. c #924F2C",
"-. c #84532A",
";. c #8A542C",
":. c #8A5B2C",
">. c #9B5B2D",
",. c #985527",
"<. c #835334",
"1. c #8C5C33",
"2. c #8C5A3B",
"3. c #895837",
"4. c #9B5332",
"5. c #9A5A34",
"6. c #965B3B",
"7. c #955A36",
"8. c #844C33",
"9. c #A25424",
"0. c #A3572F",
"q. c #A15B2B",
"w. c #AD5C2D",
"e. c #AA5627",
"r. c #B75D2A",
"t. c #A45D35",
"y. c #AB5E32",
"u. c #9A6F3F",
"i. c #99623B",
"p. c #B9632E",
"a. c #A56239",
"s. c #AD633E",
"d. c #BA6B3C",
"f. c #B76637",
"g. c #935C44",
"h. c #8A5B49",
"j. c #9A6B44",
"k. c #986849",
"l. c #9C7244",
"z. c #9B7657",
"x. c #8C6D4F",
"c. c #A46242",
"v. c #A96943",
"b. c #B56B42",
"n. c #BA6E43",
"m. c #B26945",
"M. c #A17346",
"N. c #B87048",
"B. c #A06F51",
"V. c #B16F55",
"C. c #A87655",
"Z. c #897C6E",
"A. c #827668",
"S. c #877A75",
"D. c #957F72",
"F. c #937F67",
"G. c #BF8C5F",
"H. c #92806C",
"J. c #8E827C",
"K. c #9B8C79",
"L. c #B88469",
"P. c #BF8770",
"I. c #A1927F",
"U. c #B8997C",
"Y. c #C78F60",
"T. c #C79463",
"R. c #CC9563",
"E. c #C3956A",
"W. c #CD986E",
"Q. c #D39A6C",
"!. c #D59768",
"~. c #C58A78",
"^. c #8E8783",
"/. c #988A87",
"(. c #9E908F",
"). c #9A8E90",
"_. c #9F9190",
"`. c #A79789",
"'. c #B69B89",
"]. c #AC9D94",
"[. c #A79A99",
"{. c #A48E83",
"}. c #AEA69B",
"|. c #B4A499",
" X c #BCA184",
".X c #ADA1A3",
"XX c #B7AFAC",
"oX c #BCABAA",
"OX c #B9ACA4",
"+X c #BFB4A7",
"@X c #C08F81",
"#X c #C89783",
"$X c #C0A88E",
"%X c #C0AA9F",
"&X c #DFBE9D",
"*X c #E0BA96",
"=X c #C3B5AE",
"-X c #C6BBAE",
";X c #C5BCB4",
":X c #C7BAB5",
">X c #D3BEB9",
",X c #C3AEAB",
"<X c #CBC1B5",
"1X c #CFC6BF",
"2X c #D5CABB",
"3X c #D6C4BC",
"4X c #D3C1A9",
"5X c #E6C5AC",
"6X c #F3DABC",
"7X c #DCCEC4",
"8X c #D4CDCA",
"9X c #DBCECC",
"0X c #DBC7C6",
"qX c #DAD1CD",
"wX c #D6D1D2",
"eX c #DDD4D2",
"rX c #CCC7C4",
"tX c #E5D3CB",
"yX c #E9D8C8",
"uX c #E1D5D3",
"iX c #E4DAD5",
"pX c #EADDD5",
"aX c #EADEDB",
"sX c #E2DDD9",
"dX c #F0D6C9",
"fX c #FCE3CF",
"gX c #EBE1DD",
"hX c #EBE1D7",
"jX c #FBEBDB",
"kX c #F5E3DA",
"lX c #EDE3E3",
"zX c #F3E8E7",
/* pixels */
"a $ a y y v y 1 $ t   t 1 2 3 3 z j 0 3 2 1 1 1 2 , 7 7 6 5 i p ",
"@ $ l l 2 2 y a 2 a   j  .../ h . 4 3 y y b } ..} / 3 k 7 $ % - ",
"% u a l s a s s 2 @ + I.jXuXJ.X.[.}.+X<X2XyXhXjX2X/.4 3 3 l d u ",
"w d 5 N M s s i 2 z.H.|.-X[.^.XX;X+X+X<X2X2X2X<X}.`.o.O.) 1 $ 2 ",
"$ N i N 6 m = V P 5XfXpXgXzXwXwXqX1X;X-X<X<X<X+X9X9XuXuX<X .z t ",
"* m u n Z g.C Z R 5XjXdX=X:X8X8XiXiXiXhXpXpXhXgXzXuXuXzXgX`.v y ",
"i i w = 1.G.:.;.7.L.#X'.} Q ' [ X...A.Z.H.H.J.J.S.S.[.aXsXOXh ~ ",
"2 a p p 1.W.>.5.5.=.8.h.P _ ..J v j j j j v v Q ' ! O.qXiX8Xh h ",
"3 t I e M.R.,.q.t.>.a.g.2.W ( _ J k i a d l J ) ] / S.0X0XtXo.3 ",
"h a I e u.R.q.q.y.>.4.;.&.-.E E N i 5 6 5 i k J / ~ h.>XaX0X} 0 ",
"j a m & l.R.q.a.n.s.0.=.-.-.D D W B N n N m L J J 0 ] ,XkXtX| 0 ",
"3 3 * X l.R.q.d.s.s.4.6.:.:.:.:.F A N M m i s L / / ] ,XkXtXZ.3 ",
"4 2 - o j.T.>.v.c.V.g.g.8.R D F U A V N N p d l / ~ [ oXaXdX[.4 ",
"7 5 - X l.T.:.v.P.~.h.h.P V w S A A A A U U Y Y ! ~ [ oXpXaX:X9 ",
"5 s = X l.E.1.C.V.@Xh.` K I g T p p p S N p a z z ~ { .XlXiX:X8 ",
"6 M = X l.E.i.C.~.#X` ` K l f g f p i p p u 3 4 9 ! ' [.zXwXXX8 ",
"s s B X l.W.1.N.N.c.g.2.A N g b U p p f w l T c x 4 | _.9XgX^.  ",
"a s N ; j.W.>.n.n.s.b.i.Z i d b I d T T w d _ T c z | (.uXaX;X' ",
"5 a M O j.Q.q.d.f.b.N.i.C = i d d N W T p p T J 3 Q { _.gXqXsX#.",
"5 5 m - j.Q.q.d.w.f.n.5.C = i u u f S U N I G a , ~ { /.lXrXgX@.",
"2 5 N & i.!.9.d.r.f.n.y.q > q a u $ u M m N a < 9 z o.^.lXeXgX#.",
"2 2 i = 7.!.9.d.p.p.n.t.&.: 6 7 5 i i p u * 5 7 0 z +.^.zXeX8XX.",
"1 2 6 & *.R.9.p.r.r.w.t.&.& 5 5 u N M 6 * * u k z ! @.).lXeXrX^ ",
"1 $ * & *.Y.,.r.r.e.w.t.&.: 6 7 s N i * * i s J / ] $.).lXwXsX$.",
", 3 * V r Y.q.9.e.w.e.=.C q 5 2 L i i m i i G J | / ] [.aXiXiX^.",
"l d % & > G.a.q.,.9.0.4.8.P M s 5 s M H G N k K x.] A..XuX0XaX.X",
"  a N U E G.a.,.t.5.6.g.R 6 5 7 @ 5 * * N s s Y 4 ) /.,XpXqXtX}.",
"].4XdX6X5X&XC.-.*.7.c.C.B.W 6 a < 5 + + N G 7 s ) {.>X>XtXpXjX+X",
"..H.'.$XU.U.H.j.L.B.h.R n $ 1 d 2 a @ * U U 5 2 0 D.%X].].`.K._ ",
"%     2 b G U Z q q q q M * 2 f 2 s u 5 d s 5 a 7 L J 0 3 < 2 % ",
"N 5 2 @ a 2 s 5 q 6 6 6 5 5 t t y a 5 $ $ 2 6 k 0 7 0 k c j 2 d ",
"5 5 i 2 l a L 7 < 5 6 6 5 $ t % 2 2 2 t u i s 5 6 7 7 7 a a @ $ "
};
