/* XPM */
static char *player1719680110[] = {
/* columns rows colors chars-per-pixel */
"32 32 191 2 ",
"   c #1D0A06",
".  c #100108",
"X  c #1F0D0C",
"o  c #180917",
"O  c #1D1512",
"+  c #220F04",
"@  c #230F08",
"#  c #310F0D",
"$  c #291701",
"%  c #2B1807",
"&  c #29140A",
"*  c #2B1A0A",
"=  c #351D0B",
"-  c #220E14",
";  c #270F1D",
":  c #251112",
">  c #281710",
",  c #2E1A14",
"<  c #25141B",
"1  c #2A141B",
"2  c #2D1E19",
"3  c #221D1A",
"4  c #331E15",
"5  c #381D16",
"6  c #311E1B",
"7  c #371A1B",
"8  c #2D241E",
"9  c #3D2817",
"0  c #36231A",
"q  c #3E2C1B",
"w  c #392418",
"e  c #1E1122",
"r  c #2D1B24",
"t  c #2B1722",
"y  c #341F25",
"u  c #301F2F",
"i  c #2D2029",
"p  c #352326",
"a  c #3A2021",
"s  c #3D2A22",
"d  c #34242D",
"f  c #3B262A",
"g  c #3D2B2D",
"h  c #2F2530",
"j  c #342331",
"k  c #382731",
"l  c #3D2E31",
"z  c #48370C",
"x  c #473A0D",
"c  c #432318",
"v  c #422A1F",
"b  c #453514",
"n  c #4A3214",
"m  c #473916",
"M  c #4C3B15",
"N  c #45331D",
"B  c #4B361C",
"V  c #4D3B1C",
"C  c #503B15",
"Z  c #523C1D",
"A  c #452C23",
"S  c #432B2B",
"D  c #492F2E",
"F  c #4A3524",
"G  c #4E3D23",
"H  c #4C362B",
"J  c #4D3C2C",
"K  c #533D23",
"L  c #583F24",
"P  c #533D2C",
"I  c #52342C",
"U  c #482D34",
"Y  c #432F38",
"T  c #412D36",
"R  c #463136",
"E  c #4B3234",
"W  c #4E3A33",
"Q  c #46343D",
"!  c #4F3538",
"~  c #533D32",
"^  c #5C3F37",
"/  c #50323C",
"(  c #523B3E",
")  c #4E4215",
"_  c #53421D",
"`  c #5A491E",
"'  c #554223",
"]  c #594525",
"[  c #544820",
"{  c #5B4926",
"}  c #56422B",
"|  c #5A452B",
" . c #5D4A2B",
".. c #4F423A",
"X. c #564332",
"o. c #5A4532",
"O. c #5D4B31",
"+. c #5A4738",
"@. c #57493E",
"#. c #5C4A38",
"$. c #614D2D",
"%. c #64512D",
"&. c #604637",
"*. c #624C33",
"=. c #644D3A",
"-. c #694F3E",
";. c #655233",
":. c #695634",
">. c #6C5A35",
",. c #66523A",
"<. c #6B543B",
"1. c #6D5A3B",
"2. c #715E3C",
"3. c #73613D",
"4. c #463641",
"5. c #493745",
"6. c #4E3940",
"7. c #503D43",
"8. c #523E49",
"9. c #564342",
"0. c #5B4643",
"q. c #534940",
"w. c #5C4B42",
"e. c #534B49",
"r. c #594551",
"t. c #5C4953",
"y. c #584E59",
"u. c #554454",
"i. c #634E43",
"p. c #665343",
"a. c #6A5345",
"s. c #6E5B42",
"d. c #6A524B",
"f. c #6B5A4A",
"g. c #745F45",
"h. c #745749",
"j. c #755F48",
"k. c #6D5553",
"l. c #735D52",
"z. c #725E5E",
"x. c #7A6A46",
"c. c #77654D",
"v. c #7E614F",
"b. c #7C6948",
"n. c #746143",
"m. c #766053",
"M. c #786352",
"N. c #796952",
"B. c #7A665E",
"V. c #706168",
"C. c #7D666E",
"Z. c #7E6664",
"A. c #786470",
"S. c #757170",
"D. c #816655",
"F. c #8D715C",
"G. c #866D68",
"H. c #896D62",
"J. c #9A7E68",
"K. c #927661",
"L. c #896A70",
"P. c #827678",
"I. c #8D777C",
"U. c #947C7C",
"Y. c #938175",
"T. c #8E828C",
"R. c #9E8A81",
"E. c #9E8A8B",
"W. c #A08C8E",
"Q. c #AA868A",
"!. c #B08E85",
"~. c #A8978F",
"^. c #A79F9C",
"/. c #B79893",
"(. c #A69AA4",
"). c #A9A4A1",
"_. c #B2AAA8",
"`. c #B6B2B1",
"'. c #C2A698",
"]. c #C4A2A3",
"[. c #DCBBAB",
"{. c #D7B4AA",
"}. c #D5BAB5",
"|. c #CAB6B5",
" X c #D5C2BE",
".X c #E3C4B0",
"XX c #EDC6C9",
"oX c #F7E4DE",
"OX c #FAE7E9",
"+X c #FBE8EA",
"@X c #F7F1F1",
/* pixels */
"M ' ] K K P } } L n n Z L Z L Z L C C x ` M C C Z Z Z Z L | X.X.",
"M ' | | } } } o.C n n Z L L L L n ` ` M Z C ` C Z Z Z K K I J ' ",
"M _ { | | } } | Z C C L Z C I L | ,.g.O.$.Z L B n Z L K G G ' ' ",
"M ' $. .o.o.| | $.L L L L L L ^ f.w.l.c.-.I B L Z L ] $.} [ G ' ",
"_ { $. .$.$.*.$.$.` $.%.$.$.*.i.d.9.k.l.d.d.&.-.*.*.$.*.*. .[ V ",
"_ [ { { | *.*.$.:.%.%.:.<.<.&.o.U g U S a i.-.&.*.*.*.;.;. .[ ' ",
"C _ ' ]  .;.>.>.2.>.:.:.1.-.I v ! U ( S 5 l.l.a.-.-.,.;.;. . .] ",
"_ ' {  .;.1.g.2.>.%.$.;.<.*.F 4 D y I S 5 h.i.a.j.g.g.1. .] ' G ",
"C ` $.;.1.2.3.1.:.>.:.{ <.N.H ~ I c ^ c = *.-.*.s.,.<.1.,.*.| ' ",
"' {  . .$.;.>.:.3.%.>.n.= & @ S H.-.D.&.F I *.<.$.$.;.,.O. .O.| ",
"] { { ] | $.>.>.3. .>.1.% + E G.'.K.F.*.L L ] ] ' | *.*.| | O.o.",
"Z K K V K  .>.2.:.:.x.N.a.7 ( U..X.X[.J.*.*.$.*.|  .;.*.| } | } ",
"B B B n F ] $.;.x.3.>.N.B.e.Q I./.[.{.D.-.$.| L *. .*. .} } | Z ",
"K K K B B Z ' [ ) %.O.#.s z.r.L.].{.!.c h.*.a.*.O.|  .] L ] } V ",
"} | } G G K _ _ >.1.O.p.~.OXA.t Q.XXQ.# I P P o.| } | ' Z ' ] Z ",
"P } L G B Z ' _ [ X.n.f.oX@Xe.< 6.}.L.7 E G.I G } } | } V L | ' ",
"} | } V C Z ' ] G ;.#.Y. XW.< < r P.t.o 9.E.m.X.[ $.| P P } G K ",
"{ |  .' C Z _ L >.V F {.|.R - < < S.j e u.I.i.,.]  .} P o.o.' V ",
"' } ] ] L ' ] $.L } H W.B.X t . e.`.y.o 5.A.m.<.Z ] K K X.X.G G ",
"N ' ] ] ] { $.$.| } v W d - - Q _.@X(.o r R i.N Z Z B B J ' N m ",
"' ' ' { { { ] ] ,.} H s p f t V.^.).T.h j f X.K V Z K K J F b V ",
"V V ' { $.] $.$.o.p.a.0.0 d Y 4.r O i j d R H K Z ] *.*.O.G b m ",
"m m V } |  .$.*.=.o.p.z.g y Q r 2 8 i 4.4.( o.} { %.*.,.O.K b m ",
"N V V [ | ] ] | *.o.i.i.S 9.6.l ..q.l k T : ~ ;.:.:.*.O.o.G b x ",
"V V G ] [ C B G | =.d.w.2 f : 9.q.@.X p p X #.;.b.2.O.P | O.] M ",
"[ ' [ ] L V B B | P P W , 6 : q.J }   1 >   #.;.3.:. .} o.*.$.[ ",
"{ } } { ] Z Z B o.N 9 % + > > W q } + : : @ X.O.%.$.] } o.*.$.] ",
"' [ { $.*. .| L ,.| G + % q J +.) } 0 6 , , X.{ {  . .} X.o.' ' ",
"V ' ' { $.$.$.| { } G $ 4 q J ' q ) q 8 > 4 N b {  .O.o.o.o.} Z ",
"' ' V V Z ] $.{ $.X.O.} O.J } X.[ O.o.J W X.| { [ { | } ~ } L L ",
"' G V V Z L ] ' ' _ [ X.O.) G ' M M } F H X.' V _ ' } P ~ } P V ",
"V G Z L ] $.] C V } m q ' ) G V ) M } J W @.G V _ [ } P ~ X.L G "
};
